<svg xmlns="http://www.w3.org/2000/svg" width="17.849" height="17.849" viewBox="0 0 17.849 17.849">
  <path id="Icon_metro-info" data-name="Icon metro-info" d="M10.38,7.227a.839.839,0,0,1,.837-.837h.558a.839.839,0,0,1,.837.837v.558a.839.839,0,0,1-.837.837h-.558a.839.839,0,0,1-.837-.837Zm3.347,8.088H9.264V14.2H10.38V10.852H9.264V9.737h3.347V14.2h1.116ZM11.5,1.928a8.924,8.924,0,1,0,8.924,8.924A8.924,8.924,0,0,0,11.5,1.928Zm0,16.176a7.251,7.251,0,1,1,7.251-7.251A7.251,7.251,0,0,1,11.5,18.1Z" transform="translate(-2.571 -1.928)" fill="#00b1ff"/>
</svg>
